<svg width="1920" height="4157" viewBox="0 0 1920 4157" fill="none" xmlns="http://www.w3.org/2000/svg">
<path opacity="0.2" d="M1892.04 121.166L1892.04 27.9624L1798.83 27.9624M1892.04 121.166L1798.83 121.166M1892.04 121.166L1892.04 214.37M1798.83 121.166L1798.83 27.9624M1798.83 121.166L1705.63 121.166M1798.83 121.166L1798.83 214.37M1798.83 27.9624L1705.63 27.9624M1705.63 121.166L1705.63 27.9624M1705.63 121.166L1612.43 121.166M1705.63 121.166L1705.63 214.37M1705.63 27.9624L1612.43 27.9624M1612.43 121.166L1612.43 27.9624M1612.43 121.166L1519.22 121.166M1612.43 121.166L1612.43 214.37M1612.43 27.9624L1519.22 27.9624M1519.22 121.166L1519.22 27.9624M1519.22 121.166L1426.02 121.166M1519.22 121.166L1519.22 214.37M1519.22 27.9624L1426.02 27.9624M1426.02 121.166L1426.02 27.9624M1426.02 121.166L1332.82 121.166M1426.02 121.166L1426.02 214.37M1426.02 27.9624L1332.82 27.9624M1332.82 121.166L1332.82 27.9624M1332.82 121.166L1239.61 121.166M1332.82 121.166L1332.82 214.37M1332.82 27.9624L1239.61 27.9624M1239.61 121.166L1239.61 27.9624M1239.61 121.166L1146.41 121.166M1239.61 121.166L1239.61 214.37M1239.61 27.9624L1146.41 27.9624M1146.41 121.166L1146.41 27.9624M1146.41 121.166L1053.2 121.166M1146.41 121.166L1146.41 214.37M1146.41 27.9624L1053.2 27.9624M1053.2 121.166L1053.2 27.9624M1053.2 121.166L960 121.166M1053.2 121.166L1053.2 214.37M1053.2 27.9624L960 27.9624M960 121.166L960 27.9624M960 121.166L866.796 121.166M960 121.166L960 214.37M960 27.9624L866.796 27.9624M866.796 121.166L866.796 27.9624M866.796 121.166L773.592 121.166M866.796 121.166L866.796 214.37M866.796 27.9624L773.592 27.9624M773.592 121.166L773.592 27.9624M773.592 121.166L680.388 121.166M773.592 121.166L773.592 214.37M773.592 27.9624L680.388 27.9623M680.388 121.166L680.388 27.9623M680.388 121.166L587.184 121.166M680.388 121.166L680.388 214.37M680.388 27.9623L587.184 27.9623M587.184 121.166L587.184 27.9623M587.184 121.166L493.981 121.166M587.184 121.166L587.184 214.37M587.184 27.9623L493.981 27.9623M493.981 121.166L493.981 27.9623M493.981 121.166L400.777 121.166M493.981 121.166L493.981 214.37M493.981 27.9623L400.777 27.9623M400.777 121.166L400.777 27.9623M400.777 121.166L307.573 121.166M400.777 121.166L400.777 214.37M400.777 27.9623L307.573 27.9623M307.573 121.166L307.573 27.9623M307.573 121.166L214.369 121.166M307.573 121.166L307.573 214.37M307.573 27.9623L214.369 27.9623M214.369 121.166L214.369 27.9623M214.369 121.166L121.165 121.166M214.369 121.166L214.369 214.37M214.369 27.9623L121.165 27.9623M121.165 121.166L121.165 27.9623M121.165 121.166L27.9612 121.166M121.165 121.166L121.165 214.37M121.165 27.9623L27.9612 27.9623L27.9612 121.166M27.9612 121.166L27.9612 214.37M1892.04 214.37L1798.83 214.37M1892.04 214.37L1892.04 307.574M1798.83 214.37L1705.63 214.37M1798.83 214.37L1798.83 307.574M1705.63 214.37L1612.43 214.37M1705.63 214.37L1705.63 307.574M1612.43 214.37L1519.22 214.37M1612.43 214.37L1612.43 307.574M1519.22 214.37L1426.02 214.37M1519.22 214.37L1519.22 307.574M1426.02 214.37L1332.82 214.37M1426.02 214.37L1426.02 307.574M1332.82 214.37L1239.61 214.37M1332.82 214.37L1332.82 307.574M1239.61 214.37L1146.41 214.37M1239.61 214.37L1239.61 307.574M1146.41 214.37L1053.2 214.37M1146.41 214.37L1146.41 307.574M1053.2 214.37L960 214.37M1053.2 214.37L1053.2 307.574M960 214.37L866.796 214.37M960 214.37L960 307.574M866.796 214.37L773.592 214.37M866.796 214.37L866.796 307.574M773.592 214.37L680.388 214.37M773.592 214.37L773.592 307.574M680.388 214.37L587.184 214.37M680.388 214.37L680.388 307.574M587.184 214.37L493.981 214.37M587.184 214.37L587.184 307.574M493.981 214.37L400.777 214.37M493.981 214.37L493.981 307.574M400.777 214.37L307.573 214.37M400.777 214.37L400.777 307.574M307.573 214.37L214.369 214.37M307.573 214.37L307.573 307.574M214.369 214.37L121.165 214.37M214.369 214.37L214.369 307.574M121.165 214.37L27.9612 214.37M121.165 214.37L121.165 307.574M27.9612 214.37L27.9612 307.574M1892.04 307.574L1798.83 307.574M1892.04 307.574L1892.04 400.778M1798.83 307.574L1705.63 307.574M1798.83 307.574L1798.83 400.778M1705.63 307.574L1612.43 307.574M1705.63 307.574L1705.63 400.778M1612.43 307.574L1519.22 307.574M1612.43 307.574L1612.43 400.778M1519.22 307.574L1426.02 307.574M1519.22 307.574L1519.22 400.778M1426.02 307.574L1332.82 307.574M1426.02 307.574L1426.02 400.778M1332.82 307.574L1239.61 307.574M1332.82 307.574L1332.82 400.778M1239.61 307.574L1146.41 307.574M1239.61 307.574L1239.61 400.778M1146.41 307.574L1053.2 307.574M1146.41 307.574L1146.41 400.778M1053.2 307.574L960 307.574M1053.2 307.574L1053.2 400.778M960 307.574L866.796 307.574M960 307.574L960 400.778M866.796 307.574L773.592 307.574M866.796 307.574L866.796 400.778M773.592 307.574L680.388 307.574M773.592 307.574L773.592 400.778M680.388 307.574L587.184 307.574M680.388 307.574L680.388 400.778M587.184 307.574L493.981 307.574M587.184 307.574L587.184 400.778M493.981 307.574L400.777 307.574M493.981 307.574L493.981 400.778M400.777 307.574L307.573 307.574M400.777 307.574L400.777 400.778M307.573 307.574L214.369 307.574M307.573 307.574L307.573 400.778M214.369 307.574L121.165 307.574M214.369 307.574L214.369 400.778M121.165 307.574L27.9612 307.574M121.165 307.574L121.165 400.778M27.9612 307.574L27.9612 400.778M1892.04 400.778L1798.83 400.778M1892.04 400.778L1892.04 493.982M1798.83 400.778L1705.63 400.778M1798.83 400.778L1798.83 493.982M1705.63 400.778L1612.43 400.778M1705.63 400.778L1705.63 493.982M1612.43 400.778L1519.22 400.778M1612.43 400.778L1612.43 493.982M1519.22 400.778L1426.02 400.778M1519.22 400.778L1519.22 493.982M1426.02 400.778L1332.82 400.778M1426.02 400.778L1426.02 493.982M1332.82 400.778L1239.61 400.778M1332.82 400.778L1332.82 493.982M1239.61 400.778L1146.41 400.778M1239.61 400.778L1239.61 493.982M1146.41 400.778L1053.2 400.778M1146.41 400.778L1146.41 493.982M1053.2 400.778L960 400.778M1053.2 400.778L1053.2 493.982M960 400.778L866.796 400.778M960 400.778L960 493.982M866.796 400.778L773.592 400.778M866.796 400.778L866.796 493.982M773.592 400.778L680.388 400.778M773.592 400.778L773.592 493.982M680.388 400.778L587.184 400.778M680.388 400.778L680.388 493.982M587.184 400.778L493.981 400.778M587.184 400.778L587.184 493.982M493.981 400.778L400.777 400.778M493.981 400.778L493.981 493.982M400.777 400.778L307.573 400.778M400.777 400.778L400.777 493.982M307.573 400.778L214.369 400.778M307.573 400.778L307.573 493.982M214.369 400.778L121.165 400.778M214.369 400.778L214.369 493.982M121.165 400.778L27.9612 400.778M121.165 400.778L121.165 493.982M27.9612 400.778L27.9612 493.982M1892.04 493.982L1798.83 493.982M1892.04 493.982L1892.04 587.186M1798.83 493.982L1705.63 493.982M1798.83 493.982L1798.83 587.186M1705.63 493.982L1612.43 493.982M1705.63 493.982L1705.63 587.186M1612.43 493.982L1519.22 493.982M1612.43 493.982L1612.43 587.186M1519.22 493.982L1426.02 493.982M1519.22 493.982L1519.22 587.186M1426.02 493.982L1332.82 493.982M1426.02 493.982L1426.02 587.186M1332.82 493.982L1239.61 493.982M1332.82 493.982L1332.82 587.186M1239.61 493.982L1146.41 493.982M1239.61 493.982L1239.61 587.186M1146.41 493.982L1053.2 493.982M1146.41 493.982L1146.41 587.186M1053.2 493.982L960 493.982M1053.2 493.982L1053.2 587.186M960 493.982L866.796 493.982M960 493.982L960 587.186M866.796 493.982L773.592 493.982M866.796 493.982L866.796 587.186M773.592 493.982L680.388 493.982M773.592 493.982L773.592 587.185M680.388 493.982L587.184 493.982M680.388 493.982L680.388 587.185M587.184 493.982L493.981 493.982M587.184 493.982L587.184 587.185M493.981 493.982L400.777 493.982M493.981 493.982L493.981 587.185M400.777 493.982L307.573 493.982M400.777 493.982L400.777 587.185M307.573 493.982L214.369 493.982M307.573 493.982L307.573 587.185M214.369 493.982L121.165 493.982M214.369 493.982L214.369 587.185M121.165 493.982L27.9612 493.982M121.165 493.982L121.165 587.185M27.9612 493.982L27.9612 587.185M1892.04 587.186L1798.83 587.186M1892.04 587.186L1892.04 680.389M1798.83 587.186L1705.63 587.186M1798.83 587.186L1798.83 680.389M1705.63 587.186L1612.43 587.186M1705.63 587.186L1705.63 680.389M1612.43 587.186L1519.22 587.186M1612.43 587.186L1612.43 680.389M1519.22 587.186L1426.02 587.186M1519.22 587.186L1519.22 680.389M1426.02 587.186L1332.82 587.186M1426.02 587.186L1426.02 680.389M1332.82 587.186L1239.61 587.186M1332.82 587.186L1332.82 680.389M1239.61 587.186L1146.41 587.186M1239.61 587.186L1239.61 680.389M1146.41 587.186L1053.2 587.186M1146.41 587.186L1146.41 680.389M1053.2 587.186L960 587.186M1053.2 587.186L1053.2 680.389M960 587.186L866.796 587.186M960 587.186L960 680.389M866.796 587.186L773.592 587.185M866.796 587.186L866.796 680.389M773.592 587.185L680.388 587.185M773.592 587.185L773.592 680.389M680.388 587.185L587.184 587.185M680.388 587.185L680.388 680.389M587.184 587.185L493.981 587.185M587.184 587.185L587.184 680.389M493.981 587.185L400.777 587.185M493.981 587.185L493.981 680.389M400.777 587.185L307.573 587.185M400.777 587.185L400.777 680.389M307.573 587.185L214.369 587.185M307.573 587.185L307.573 680.389M214.369 587.185L121.165 587.185M214.369 587.185L214.369 680.389M121.165 587.185L27.9612 587.185M121.165 587.185L121.165 680.389M27.9612 587.185L27.9612 680.389M1892.04 680.389L1798.83 680.389M1892.04 680.389L1892.04 773.593M1798.83 680.389L1705.63 680.389M1798.83 680.389L1798.83 773.593M1705.63 680.389L1612.43 680.389M1705.63 680.389L1705.63 773.593M1612.43 680.389L1519.22 680.389M1612.43 680.389L1612.43 773.593M1519.22 680.389L1426.02 680.389M1519.22 680.389L1519.22 773.593M1426.02 680.389L1332.82 680.389M1426.02 680.389L1426.02 773.593M1332.82 680.389L1239.61 680.389M1332.82 680.389L1332.82 773.593M1239.61 680.389L1146.41 680.389M1239.61 680.389L1239.61 773.593M1146.41 680.389L1053.2 680.389M1146.41 680.389L1146.41 773.593M1053.2 680.389L960 680.389M1053.2 680.389L1053.2 773.593M960 680.389L866.796 680.389M960 680.389L960 773.593M866.796 680.389L773.592 680.389M866.796 680.389L866.796 773.593M773.592 680.389L680.388 680.389M773.592 680.389L773.592 773.593M680.388 680.389L587.184 680.389M680.388 680.389L680.388 773.593M587.184 680.389L493.981 680.389M587.184 680.389L587.184 773.593M493.981 680.389L400.777 680.389M493.981 680.389L493.981 773.593M400.777 680.389L307.573 680.389M400.777 680.389L400.777 773.593M307.573 680.389L214.369 680.389M307.573 680.389L307.573 773.593M214.369 680.389L121.165 680.389M214.369 680.389L214.369 773.593M121.165 680.389L27.9612 680.389M121.165 680.389L121.165 773.593M27.9612 680.389L27.9611 773.593M1892.04 773.593L1798.83 773.593M1892.04 773.593L1892.04 866.797M1798.83 773.593L1705.63 773.593M1798.83 773.593L1798.83 866.797M1705.63 773.593L1612.43 773.593M1705.63 773.593L1705.63 866.797M1612.43 773.593L1519.22 773.593M1612.43 773.593L1612.43 866.797M1519.22 773.593L1426.02 773.593M1519.22 773.593L1519.22 866.797M1426.02 773.593L1332.82 773.593M1426.02 773.593L1426.02 866.797M1332.82 773.593L1239.61 773.593M1332.82 773.593L1332.82 866.797M1239.61 773.593L1146.41 773.593M1239.61 773.593L1239.61 866.797M1146.41 773.593L1053.2 773.593M1146.41 773.593L1146.41 866.797M1053.2 773.593L960 773.593M1053.2 773.593L1053.2 866.797M960 773.593L866.796 773.593M960 773.593L960 866.797M866.796 773.593L773.592 773.593M866.796 773.593L866.796 866.797M773.592 773.593L680.388 773.593M773.592 773.593L773.592 866.797M680.388 773.593L587.184 773.593M680.388 773.593L680.388 866.797M587.184 773.593L493.981 773.593M587.184 773.593L587.184 866.797M493.981 773.593L400.777 773.593M493.981 773.593L493.981 866.797M400.777 773.593L307.573 773.593M400.777 773.593L400.777 866.797M307.573 773.593L214.369 773.593M307.573 773.593L307.573 866.797M214.369 773.593L121.165 773.593M214.369 773.593L214.369 866.797M121.165 773.593L27.9611 773.593M121.165 773.593L121.165 866.797M27.9611 773.593L27.9611 866.797M1892.04 866.797L1798.83 866.797M1892.04 866.797L1892.04 960.001M1798.83 866.797L1705.63 866.797M1798.83 866.797L1798.83 960.001M1705.63 866.797L1612.43 866.797M1705.63 866.797L1705.63 960.001M1612.43 866.797L1519.22 866.797M1612.43 866.797L1612.43 960.001M1519.22 866.797L1426.02 866.797M1519.22 866.797L1519.22 960.001M1426.02 866.797L1332.82 866.797M1426.02 866.797L1426.02 960.001M1332.82 866.797L1239.61 866.797M1332.82 866.797L1332.82 960.001M1239.61 866.797L1146.41 866.797M1239.61 866.797L1239.61 960.001M1146.41 866.797L1053.2 866.797M1146.41 866.797L1146.41 960.001M1053.2 866.797L960 866.797M1053.2 866.797L1053.2 960.001M960 866.797L866.796 866.797M960 866.797L960 960.001M866.796 866.797L773.592 866.797M866.796 866.797L866.796 960.001M773.592 866.797L680.388 866.797M773.592 866.797L773.592 960.001M680.388 866.797L587.184 866.797M680.388 866.797L680.388 960.001M587.184 866.797L493.981 866.797M587.184 866.797L587.184 960.001M493.981 866.797L400.777 866.797M493.981 866.797L493.981 960.001M400.777 866.797L307.573 866.797M400.777 866.797L400.777 960.001M307.573 866.797L214.369 866.797M307.573 866.797L307.573 960.001M214.369 866.797L121.165 866.797M214.369 866.797L214.369 960.001M121.165 866.797L27.9611 866.797M121.165 866.797L121.165 960.001M27.9611 866.797L27.9611 960.001M1892.04 960.001L1798.83 960.001M1892.04 960.001L1892.04 1053.2M1798.83 960.001L1705.63 960.001M1798.83 960.001L1798.83 1053.2M1705.63 960.001L1612.43 960.001M1705.63 960.001L1705.63 1053.2M1612.43 960.001L1519.22 960.001M1612.43 960.001L1612.43 1053.2M1519.22 960.001L1426.02 960.001M1519.22 960.001L1519.22 1053.2M1426.02 960.001L1332.82 960.001M1426.02 960.001L1426.02 1053.2M1332.82 960.001L1239.61 960.001M1332.82 960.001L1332.82 1053.2M1239.61 960.001L1146.41 960.001M1239.61 960.001L1239.61 1053.2M1146.41 960.001L1053.2 960.001M1146.41 960.001L1146.41 1053.2M1053.2 960.001L960 960.001M1053.2 960.001L1053.2 1053.2M960 960.001L866.796 960.001M960 960.001L960 1053.2M866.796 960.001L773.592 960.001M866.796 960.001L866.796 1053.2M773.592 960.001L680.388 960.001M773.592 960.001L773.592 1053.2M680.388 960.001L587.184 960.001M680.388 960.001L680.388 1053.2M587.184 960.001L493.981 960.001M587.184 960.001L587.184 1053.2M493.981 960.001L400.777 960.001M493.981 960.001L493.981 1053.2M400.777 960.001L307.573 960.001M400.777 960.001L400.777 1053.2M307.573 960.001L214.369 960.001M307.573 960.001L307.573 1053.2M214.369 960.001L121.165 960.001M214.369 960.001L214.369 1053.2M121.165 960.001L27.9611 960.001M121.165 960.001L121.165 1053.2M27.9611 960.001L27.9611 1053.2M1892.04 1053.2L1798.83 1053.2M1892.04 1053.2L1892.04 1146.41M1798.83 1053.2L1705.63 1053.2M1798.83 1053.2L1798.83 1146.41M1705.63 1053.2L1612.43 1053.2M1705.63 1053.2L1705.63 1146.41M1612.43 1053.2L1519.22 1053.2M1612.43 1053.2L1612.43 1146.41M1519.22 1053.2L1426.02 1053.2M1519.22 1053.2L1519.22 1146.41M1426.02 1053.2L1332.82 1053.2M1426.02 1053.2L1426.02 1146.41M1332.82 1053.2L1239.61 1053.2M1332.82 1053.2L1332.82 1146.41M1239.61 1053.2L1146.41 1053.2M1239.61 1053.2L1239.61 1146.41M1146.41 1053.2L1053.2 1053.2M1146.41 1053.2L1146.41 1146.41M1053.2 1053.2L960 1053.2M1053.2 1053.2L1053.2 1146.41M960 1053.2L866.796 1053.2M960 1053.2L960 1146.41M866.796 1053.2L773.592 1053.2M866.796 1053.2L866.796 1146.41M773.592 1053.2L680.388 1053.2M773.592 1053.2L773.592 1146.41M680.388 1053.2L587.184 1053.2M680.388 1053.2L680.388 1146.41M587.184 1053.2L493.981 1053.2M587.184 1053.2L587.184 1146.41M493.981 1053.2L400.777 1053.2M493.981 1053.2L493.981 1146.41M400.777 1053.2L307.573 1053.2M400.777 1053.2L400.777 1146.41M307.573 1053.2L214.369 1053.2M307.573 1053.2L307.573 1146.41M214.369 1053.2L121.165 1053.2M214.369 1053.2L214.369 1146.41M121.165 1053.2L27.9611 1053.2M121.165 1053.2L121.165 1146.41M27.9611 1053.2L27.9611 1146.41M1892.04 1146.41L1798.83 1146.41M1892.04 1146.41L1892.04 1239.61M1798.83 1146.41L1705.63 1146.41M1798.83 1146.41L1798.83 1239.61M1705.63 1146.41L1612.43 1146.41M1705.63 1146.41L1705.63 1239.61M1612.43 1146.41L1519.22 1146.41M1612.43 1146.41L1612.43 1239.61M1519.22 1146.41L1426.02 1146.41M1519.22 1146.41L1519.22 1239.61M1426.02 1146.41L1332.82 1146.41M1426.02 1146.41L1426.02 1239.61M1332.82 1146.41L1239.61 1146.41M1332.82 1146.41L1332.82 1239.61M1239.61 1146.41L1146.41 1146.41M1239.61 1146.41L1239.61 1239.61M1146.41 1146.41L1053.2 1146.41M1146.41 1146.41L1146.41 1239.61M1053.2 1146.41L960 1146.41M1053.2 1146.41L1053.2 1239.61M960 1146.41L866.796 1146.41M960 1146.41L960 1239.61M866.796 1146.41L773.592 1146.41M866.796 1146.41L866.796 1239.61M773.592 1146.41L680.388 1146.41M773.592 1146.41L773.592 1239.61M680.388 1146.41L587.184 1146.41M680.388 1146.41L680.388 1239.61M587.184 1146.41L493.981 1146.41M587.184 1146.41L587.184 1239.61M493.981 1146.41L400.777 1146.41M493.981 1146.41L493.981 1239.61M400.777 1146.41L307.573 1146.41M400.777 1146.41L400.777 1239.61M307.573 1146.41L214.369 1146.41M307.573 1146.41L307.573 1239.61M214.369 1146.41L121.165 1146.41M214.369 1146.41L214.369 1239.61M121.165 1146.41L27.9611 1146.41M121.165 1146.41L121.165 1239.61M27.9611 1146.41L27.9611 1239.61M1892.04 1239.61L1798.83 1239.61M1892.04 1239.61L1892.04 1332.82M1798.83 1239.61L1705.63 1239.61M1798.83 1239.61L1798.83 1332.82M1705.63 1239.61L1612.43 1239.61M1705.63 1239.61L1705.63 1332.82M1612.43 1239.61L1519.22 1239.61M1612.43 1239.61L1612.43 1332.82M1519.22 1239.61L1426.02 1239.61M1519.22 1239.61L1519.22 1332.82M1426.02 1239.61L1332.82 1239.61M1426.02 1239.61L1426.02 1332.82M1332.82 1239.61L1239.61 1239.61M1332.82 1239.61L1332.82 1332.82M1239.61 1239.61L1146.41 1239.61M1239.61 1239.61L1239.61 1332.82M1146.41 1239.61L1053.2 1239.61M1146.41 1239.61L1146.41 1332.82M1053.2 1239.61L960 1239.61M1053.2 1239.61L1053.2 1332.82M960 1239.61L866.796 1239.61M960 1239.61L960 1332.82M866.796 1239.61L773.592 1239.61M866.796 1239.61L866.796 1332.82M773.592 1239.61L680.388 1239.61M773.592 1239.61L773.592 1332.82M680.388 1239.61L587.184 1239.61M680.388 1239.61L680.388 1332.82M587.184 1239.61L493.981 1239.61M587.184 1239.61L587.184 1332.82M493.981 1239.61L400.777 1239.61M493.981 1239.61L493.981 1332.82M400.777 1239.61L307.573 1239.61M400.777 1239.61L400.777 1332.82M307.573 1239.61L214.369 1239.61M307.573 1239.61L307.573 1332.82M214.369 1239.61L121.165 1239.61M214.369 1239.61L214.369 1332.82M121.165 1239.61L27.9611 1239.61M121.165 1239.61L121.165 1332.82M27.9611 1239.61L27.9611 1332.82M1892.04 1332.82L1798.83 1332.82M1892.04 1332.82L1892.04 1426.02M1798.83 1332.82L1705.63 1332.82M1798.83 1332.82L1798.83 1426.02M1705.63 1332.82L1612.43 1332.82M1705.63 1332.82L1705.63 1426.02M1612.43 1332.82L1519.22 1332.82M1612.43 1332.82L1612.43 1426.02M1519.22 1332.82L1426.02 1332.82M1519.22 1332.82L1519.22 1426.02M1426.02 1332.82L1332.82 1332.82M1426.02 1332.82L1426.02 1426.02M1332.82 1332.82L1239.61 1332.82M1332.82 1332.82L1332.82 1426.02M1239.61 1332.82L1146.41 1332.82M1239.61 1332.82L1239.61 1426.02M1146.41 1332.82L1053.2 1332.82M1146.41 1332.82L1146.41 1426.02M1053.2 1332.82L960 1332.82M1053.2 1332.82L1053.2 1426.02M960 1332.82L866.796 1332.82M960 1332.82L960 1426.02M866.796 1332.82L773.592 1332.82M866.796 1332.82L866.796 1426.02M773.592 1332.82L680.388 1332.82M773.592 1332.82L773.592 1426.02M680.388 1332.82L587.184 1332.82M680.388 1332.82L680.388 1426.02M587.184 1332.82L493.981 1332.82M587.184 1332.82L587.184 1426.02M493.981 1332.82L400.777 1332.82M493.981 1332.82L493.981 1426.02M400.777 1332.82L307.573 1332.82M400.777 1332.82L400.777 1426.02M307.573 1332.82L214.369 1332.82M307.573 1332.82L307.573 1426.02M214.369 1332.82L121.165 1332.82M214.369 1332.82L214.369 1426.02M121.165 1332.82L27.9611 1332.82M121.165 1332.82L121.165 1426.02M27.9611 1332.82L27.9611 1426.02M1892.04 1426.02L1798.83 1426.02M1892.04 1426.02L1892.04 1519.22M1798.83 1426.02L1705.63 1426.02M1798.83 1426.02L1798.83 1519.22M1705.63 1426.02L1612.43 1426.02M1705.63 1426.02L1705.63 1519.22M1612.43 1426.02L1519.22 1426.02M1612.43 1426.02L1612.43 1519.22M1519.22 1426.02L1426.02 1426.02M1519.22 1426.02L1519.22 1519.22M1426.02 1426.02L1332.82 1426.02M1426.02 1426.02L1426.02 1519.22M1332.82 1426.02L1239.61 1426.02M1332.82 1426.02L1332.82 1519.22M1239.61 1426.02L1146.41 1426.02M1239.61 1426.02L1239.61 1519.22M1146.41 1426.02L1053.2 1426.02M1146.41 1426.02L1146.41 1519.22M1053.2 1426.02L960 1426.02M1053.2 1426.02L1053.2 1519.22M960 1426.02L866.796 1426.02M960 1426.02L960 1519.22M866.796 1426.02L773.592 1426.02M866.796 1426.02L866.796 1519.22M773.592 1426.02L680.388 1426.02M773.592 1426.02L773.592 1519.22M680.388 1426.02L587.184 1426.02M680.388 1426.02L680.388 1519.22M587.184 1426.02L493.981 1426.02M587.184 1426.02L587.184 1519.22M493.981 1426.02L400.777 1426.02M493.981 1426.02L493.981 1519.22M400.777 1426.02L307.573 1426.02M400.777 1426.02L400.777 1519.22M307.573 1426.02L214.369 1426.02M307.573 1426.02L307.573 1519.22M214.369 1426.02L121.165 1426.02M214.369 1426.02L214.369 1519.22M121.165 1426.02L27.9611 1426.02M121.165 1426.02L121.165 1519.22M27.9611 1426.02L27.9611 1519.22M1892.04 1519.22L1798.83 1519.22M1892.04 1519.22L1892.04 1612.43M1798.83 1519.22L1705.63 1519.22M1798.83 1519.22L1798.83 1612.43M1705.63 1519.22L1612.43 1519.22M1705.63 1519.22L1705.63 1612.43M1612.43 1519.22L1519.22 1519.22M1612.43 1519.22L1612.43 1612.43M1519.22 1519.22L1426.02 1519.22M1519.22 1519.22L1519.22 1612.43M1426.02 1519.22L1332.82 1519.22M1426.02 1519.22L1426.02 1612.43M1332.82 1519.22L1239.61 1519.22M1332.82 1519.22L1332.82 1612.43M1239.61 1519.22L1146.41 1519.22M1239.61 1519.22L1239.61 1612.43M1146.41 1519.22L1053.2 1519.22M1146.41 1519.22L1146.41 1612.43M1053.2 1519.22L960 1519.22M1053.2 1519.22L1053.2 1612.43M960 1519.22L866.796 1519.22M960 1519.22L960 1612.43M866.796 1519.22L773.592 1519.22M866.796 1519.22L866.796 1612.43M773.592 1519.22L680.388 1519.22M773.592 1519.22L773.592 1612.43M680.388 1519.22L587.184 1519.22M680.388 1519.22L680.388 1612.43M587.184 1519.22L493.981 1519.22M587.184 1519.22L587.184 1612.43M493.981 1519.22L400.777 1519.22M493.981 1519.22L493.981 1612.43M400.777 1519.22L307.573 1519.22M400.777 1519.22L400.777 1612.43M307.573 1519.22L214.369 1519.22M307.573 1519.22L307.573 1612.43M214.369 1519.22L121.165 1519.22M214.369 1519.22L214.369 1612.43M121.165 1519.22L27.9611 1519.22M121.165 1519.22L121.165 1612.43M27.9611 1519.22L27.9611 1612.43M1892.04 1612.43L1798.83 1612.43M1892.04 1612.43L1892.04 1705.63M1798.83 1612.43L1705.63 1612.43M1798.83 1612.43L1798.83 1705.63M1705.63 1612.43L1612.43 1612.43M1705.63 1612.43L1705.63 1705.63M1612.43 1612.43L1519.22 1612.43M1612.43 1612.43L1612.43 1705.63M1519.22 1612.43L1426.02 1612.43M1519.22 1612.43L1519.22 1705.63M1426.02 1612.43L1332.82 1612.43M1426.02 1612.43L1426.02 1705.63M1332.82 1612.43L1239.61 1612.43M1332.82 1612.43L1332.82 1705.63M1239.61 1612.43L1146.41 1612.43M1239.61 1612.43L1239.61 1705.63M1146.41 1612.43L1053.2 1612.43M1146.41 1612.43L1146.41 1705.63M1053.2 1612.43L960 1612.43M1053.2 1612.43L1053.2 1705.63M960 1612.43L866.796 1612.43M960 1612.43L960 1705.63M866.796 1612.43L773.592 1612.43M866.796 1612.43L866.796 1705.63M773.592 1612.43L680.388 1612.43M773.592 1612.43L773.592 1705.63M680.388 1612.43L587.184 1612.43M680.388 1612.43L680.388 1705.63M587.184 1612.43L493.981 1612.43M587.184 1612.43L587.184 1705.63M493.981 1612.43L400.777 1612.43M493.981 1612.43L493.981 1705.63M400.777 1612.43L307.573 1612.43M400.777 1612.43L400.777 1705.63M307.573 1612.43L214.369 1612.43M307.573 1612.43L307.573 1705.63M214.369 1612.43L121.165 1612.43M214.369 1612.43L214.369 1705.63M121.165 1612.43L27.9611 1612.43M121.165 1612.43L121.165 1705.63M27.9611 1612.43L27.9611 1705.63M1892.04 1705.63L1798.83 1705.63M1892.04 1705.63L1892.04 1798.84M1798.83 1705.63L1705.63 1705.63M1798.83 1705.63L1798.83 1798.84M1705.63 1705.63L1612.43 1705.63M1705.63 1705.63L1705.63 1798.84M1612.43 1705.63L1519.22 1705.63M1612.43 1705.63L1612.43 1798.84M1519.22 1705.63L1426.02 1705.63M1519.22 1705.63L1519.22 1798.84M1426.02 1705.63L1332.82 1705.63M1426.02 1705.63L1426.02 1798.84M1332.82 1705.63L1239.61 1705.63M1332.82 1705.63L1332.82 1798.84M1239.61 1705.63L1146.41 1705.63M1239.61 1705.63L1239.61 1798.84M1146.41 1705.63L1053.2 1705.63M1146.41 1705.63L1146.41 1798.84M1053.2 1705.63L960 1705.63M1053.2 1705.63L1053.2 1798.84M960 1705.63L866.796 1705.63M960 1705.63L960 1798.84M866.796 1705.63L773.592 1705.63M866.796 1705.63L866.796 1798.84M773.592 1705.63L680.388 1705.63M773.592 1705.63L773.592 1798.84M680.388 1705.63L587.184 1705.63M680.388 1705.63L680.388 1798.84M587.184 1705.63L493.981 1705.63M587.184 1705.63L587.184 1798.84M493.981 1705.63L400.777 1705.63M493.981 1705.63L493.981 1798.84M400.777 1705.63L307.573 1705.63M400.777 1705.63L400.777 1798.84M307.573 1705.63L214.369 1705.63M307.573 1705.63L307.573 1798.84M214.369 1705.63L121.165 1705.63M214.369 1705.63L214.369 1798.84M121.165 1705.63L27.9611 1705.63M121.165 1705.63L121.165 1798.84M27.9611 1705.63L27.9611 1798.84M1892.04 1798.84L1798.83 1798.84M1892.04 1798.84L1892.04 1892.04M1798.83 1798.84L1705.63 1798.84M1798.83 1798.84L1798.83 1892.04M1705.63 1798.84L1612.43 1798.84M1705.63 1798.84L1705.63 1892.04M1612.43 1798.84L1519.22 1798.84M1612.43 1798.84L1612.43 1892.04M1519.22 1798.84L1426.02 1798.84M1519.22 1798.84L1519.22 1892.04M1426.02 1798.84L1332.82 1798.84M1426.02 1798.84L1426.02 1892.04M1332.82 1798.84L1239.61 1798.84M1332.82 1798.84L1332.82 1892.04M1239.61 1798.84L1146.41 1798.84M1239.61 1798.84L1239.61 1892.04M1146.41 1798.84L1053.2 1798.84M1146.41 1798.84L1146.41 1892.04M1053.2 1798.84L960 1798.84M1053.2 1798.84L1053.2 1892.04M960 1798.84L866.796 1798.84M960 1798.84L960 1892.04M866.796 1798.84L773.592 1798.84M866.796 1798.84L866.796 1892.04M773.592 1798.84L680.388 1798.84M773.592 1798.84L773.592 1892.04M680.388 1798.84L587.184 1798.84M680.388 1798.84L680.388 1892.04M587.184 1798.84L493.981 1798.84M587.184 1798.84L587.184 1892.04M493.981 1798.84L400.777 1798.84M493.981 1798.84L493.981 1892.04M400.777 1798.84L307.573 1798.84M400.777 1798.84L400.777 1892.04M307.573 1798.84L214.369 1798.84M307.573 1798.84L307.573 1892.04M214.369 1798.84L121.165 1798.84M214.369 1798.84L214.369 1892.04M121.165 1798.84L27.9611 1798.84M121.165 1798.84L121.165 1892.04M27.9611 1798.84L27.9611 1892.04M1892.04 1892.04L1798.83 1892.04M1892.04 1892.04L1892.04 1985.24M1798.83 1892.04L1705.63 1892.04M1798.83 1892.04L1798.83 1985.24M1705.63 1892.04L1612.43 1892.04M1705.63 1892.04L1705.63 1985.24M1612.43 1892.04L1519.22 1892.04M1612.43 1892.04L1612.43 1985.24M1519.22 1892.04L1426.02 1892.04M1519.22 1892.04L1519.22 1985.24M1426.02 1892.04L1332.82 1892.04M1426.02 1892.04L1426.02 1985.24M1332.82 1892.04L1239.61 1892.04M1332.82 1892.04L1332.82 1985.24M1239.61 1892.04L1146.41 1892.04M1239.61 1892.04L1239.61 1985.24M1146.41 1892.04L1053.2 1892.04M1146.41 1892.04L1146.41 1985.24M1053.2 1892.04L960 1892.04M1053.2 1892.04L1053.2 1985.24M960 1892.04L866.796 1892.04M960 1892.04L960 1985.24M866.796 1892.04L773.592 1892.04M866.796 1892.04L866.796 1985.24M773.592 1892.04L680.388 1892.04M773.592 1892.04L773.592 1985.24M680.388 1892.04L587.184 1892.04M680.388 1892.04L680.388 1985.24M587.184 1892.04L493.981 1892.04M587.184 1892.04L587.184 1985.24M493.981 1892.04L400.777 1892.04M493.981 1892.04L493.981 1985.24M400.777 1892.04L307.573 1892.04M400.777 1892.04L400.777 1985.24M307.573 1892.04L214.369 1892.04M307.573 1892.04L307.573 1985.24M214.369 1892.04L121.165 1892.04M214.369 1892.04L214.369 1985.24M121.165 1892.04L27.9611 1892.04M121.165 1892.04L121.165 1985.24M27.9611 1892.04L27.9611 1985.24M1892.04 1985.24L1798.83 1985.24M1892.04 1985.24L1892.04 2078.45M1798.83 1985.24L1705.63 1985.24M1798.83 1985.24L1798.83 2078.45M1705.63 1985.24L1612.43 1985.24M1705.63 1985.24L1705.63 2078.45M1612.43 1985.24L1519.22 1985.24M1612.43 1985.24L1612.43 2078.45M1519.22 1985.24L1426.02 1985.24M1519.22 1985.24L1519.22 2078.45M1426.02 1985.24L1332.82 1985.24M1426.02 1985.24L1426.02 2078.45M1332.82 1985.24L1239.61 1985.24M1332.82 1985.24L1332.82 2078.45M1239.61 1985.24L1146.41 1985.24M1239.61 1985.24L1239.61 2078.45M1146.41 1985.24L1053.2 1985.24M1146.41 1985.24L1146.41 2078.45M1053.2 1985.24L960 1985.24M1053.2 1985.24L1053.2 2078.45M960 1985.24L866.796 1985.24M960 1985.24L960 2078.45M866.796 1985.24L773.592 1985.24M866.796 1985.24L866.796 2078.45M773.592 1985.24L680.388 1985.24M773.592 1985.24L773.592 2078.45M680.388 1985.24L587.184 1985.24M680.388 1985.24L680.388 2078.45M587.184 1985.24L493.981 1985.24M587.184 1985.24L587.184 2078.45M493.981 1985.24L400.777 1985.24M493.981 1985.24L493.981 2078.45M400.777 1985.24L307.573 1985.24M400.777 1985.24L400.777 2078.45M307.573 1985.24L214.369 1985.24M307.573 1985.24L307.573 2078.45M214.369 1985.24L121.165 1985.24M214.369 1985.24L214.369 2078.45M121.165 1985.24L27.9611 1985.24M121.165 1985.24L121.165 2078.45M27.9611 1985.24L27.9611 2078.45M1892.04 2078.45L1798.83 2078.45M1892.04 2078.45L1892.04 2171.65M1798.83 2078.45L1705.63 2078.45M1798.83 2078.45L1798.83 2171.65M1705.63 2078.45L1612.43 2078.45M1705.63 2078.45L1705.63 2171.65M1612.43 2078.45L1519.22 2078.45M1612.43 2078.45L1612.43 2171.65M1519.22 2078.45L1426.02 2078.45M1519.22 2078.45L1519.22 2171.65M1426.02 2078.45L1332.82 2078.45M1426.02 2078.45L1426.02 2171.65M1332.82 2078.45L1239.61 2078.45M1332.82 2078.45L1332.82 2171.65M1239.61 2078.45L1146.41 2078.45M1239.61 2078.45L1239.61 2171.65M1146.41 2078.45L1053.2 2078.45M1146.41 2078.45L1146.41 2171.65M1053.2 2078.45L960 2078.45M1053.2 2078.45L1053.2 2171.65M960 2078.45L866.796 2078.45M960 2078.45L960 2171.65M866.796 2078.45L773.592 2078.45M866.796 2078.45L866.796 2171.65M773.592 2078.45L680.388 2078.45M773.592 2078.45L773.592 2171.65M680.388 2078.45L587.184 2078.45M680.388 2078.45L680.388 2171.65M587.184 2078.45L493.981 2078.45M587.184 2078.45L587.184 2171.65M493.981 2078.45L400.777 2078.45M493.981 2078.45L493.98 2171.65M400.777 2078.45L307.573 2078.45M400.777 2078.45L400.777 2171.65M307.573 2078.45L214.369 2078.45M307.573 2078.45L307.573 2171.65M214.369 2078.45L121.165 2078.45M214.369 2078.45L214.369 2171.65M121.165 2078.45L27.9611 2078.45M121.165 2078.45L121.165 2171.65M27.9611 2078.45L27.9611 2171.65M1892.04 2171.65L1798.83 2171.65M1892.04 2171.65L1892.04 2264.85M1798.83 2171.65L1705.63 2171.65M1798.83 2171.65L1798.83 2264.85M1705.63 2171.65L1612.43 2171.65M1705.63 2171.65L1705.63 2264.85M1612.43 2171.65L1519.22 2171.65M1612.43 2171.65L1612.43 2264.85M1519.22 2171.65L1426.02 2171.65M1519.22 2171.65L1519.22 2264.85M1426.02 2171.65L1332.82 2171.65M1426.02 2171.65L1426.02 2264.85M1332.82 2171.65L1239.61 2171.65M1332.82 2171.65L1332.82 2264.85M1239.61 2171.65L1146.41 2171.65M1239.61 2171.65L1239.61 2264.85M1146.41 2171.65L1053.2 2171.65M1146.41 2171.65L1146.41 2264.85M1053.2 2171.65L960 2171.65M1053.2 2171.65L1053.2 2264.85M960 2171.65L866.796 2171.65M960 2171.65L960 2264.85M866.796 2171.65L773.592 2171.65M866.796 2171.65L866.796 2264.85M773.592 2171.65L680.388 2171.65M773.592 2171.65L773.592 2264.85M680.388 2171.65L587.184 2171.65M680.388 2171.65L680.388 2264.85M587.184 2171.65L493.98 2171.65M587.184 2171.65L587.184 2264.85M493.98 2171.65L400.777 2171.65M493.98 2171.65L493.98 2264.85M400.777 2171.65L307.573 2171.65M400.777 2171.65L400.777 2264.85M307.573 2171.65L214.369 2171.65M307.573 2171.65L307.573 2264.85M214.369 2171.65L121.165 2171.65M214.369 2171.65L214.369 2264.85M121.165 2171.65L27.9611 2171.65M121.165 2171.65L121.165 2264.85M27.9611 2171.65L27.9611 2264.85M1892.04 2264.85L1798.83 2264.85M1892.04 2264.85L1892.04 2358.06M1798.83 2264.85L1705.63 2264.85M1798.83 2264.85L1798.83 2358.06M1705.63 2264.85L1612.43 2264.85M1705.63 2264.85L1705.63 2358.06M1612.43 2264.85L1519.22 2264.85M1612.43 2264.85L1612.43 2358.06M1519.22 2264.85L1426.02 2264.85M1519.22 2264.85L1519.22 2358.06M1426.02 2264.85L1332.82 2264.85M1426.02 2264.85L1426.02 2358.06M1332.82 2264.85L1239.61 2264.85M1332.82 2264.85L1332.82 2358.06M1239.61 2264.85L1146.41 2264.85M1239.61 2264.85L1239.61 2358.06M1146.41 2264.85L1053.2 2264.85M1146.41 2264.85L1146.41 2358.06M1053.2 2264.85L960 2264.85M1053.2 2264.85L1053.2 2358.06M960 2264.85L866.796 2264.85M960 2264.85L960 2358.06M866.796 2264.85L773.592 2264.85M866.796 2264.85L866.796 2358.06M773.592 2264.85L680.388 2264.85M773.592 2264.85L773.592 2358.06M680.388 2264.85L587.184 2264.85M680.388 2264.85L680.388 2358.06M587.184 2264.85L493.98 2264.85M587.184 2264.85L587.184 2358.06M493.98 2264.85L400.777 2264.85M493.98 2264.85L493.98 2358.06M400.777 2264.85L307.573 2264.85M400.777 2264.85L400.777 2358.06M307.573 2264.85L214.369 2264.85M307.573 2264.85L307.573 2358.06M214.369 2264.85L121.165 2264.85M214.369 2264.85L214.369 2358.06M121.165 2264.85L27.9611 2264.85M121.165 2264.85L121.165 2358.06M27.9611 2264.85L27.9611 2358.06M1892.04 2358.06L1798.83 2358.06M1892.04 2358.06L1892.04 2451.26M1798.83 2358.06L1705.63 2358.06M1798.83 2358.06L1798.83 2451.26M1705.63 2358.06L1612.43 2358.06M1705.63 2358.06L1705.63 2451.26M1612.43 2358.06L1519.22 2358.06M1612.43 2358.06L1612.43 2451.26M1519.22 2358.06L1426.02 2358.06M1519.22 2358.06L1519.22 2451.26M1426.02 2358.06L1332.82 2358.06M1426.02 2358.06L1426.02 2451.26M1332.82 2358.06L1239.61 2358.06M1332.82 2358.06L1332.82 2451.26M1239.61 2358.06L1146.41 2358.06M1239.61 2358.06L1239.61 2451.26M1146.41 2358.06L1053.2 2358.06M1146.41 2358.06L1146.41 2451.26M1053.2 2358.06L960 2358.06M1053.2 2358.06L1053.2 2451.26M960 2358.06L866.796 2358.06M960 2358.06L960 2451.26M866.796 2358.06L773.592 2358.06M866.796 2358.06L866.796 2451.26M773.592 2358.06L680.388 2358.06M773.592 2358.06L773.592 2451.26M680.388 2358.06L587.184 2358.06M680.388 2358.06L680.388 2451.26M587.184 2358.06L493.98 2358.06M587.184 2358.06L587.184 2451.26M493.98 2358.06L400.777 2358.06M493.98 2358.06L493.98 2451.26M400.777 2358.06L307.573 2358.06M400.777 2358.06L400.777 2451.26M307.573 2358.06L214.369 2358.06M307.573 2358.06L307.573 2451.26M214.369 2358.06L121.165 2358.06M214.369 2358.06L214.369 2451.26M121.165 2358.06L27.9611 2358.06M121.165 2358.06L121.165 2451.26M27.9611 2358.06L27.9611 2451.26M1892.04 2451.26L1798.83 2451.26M1892.04 2451.26L1892.04 2544.47M1798.83 2451.26L1705.63 2451.26M1798.83 2451.26L1798.83 2544.47M1705.63 2451.26L1612.43 2451.26M1705.63 2451.26L1705.63 2544.47M1612.43 2451.26L1519.22 2451.26M1612.43 2451.26L1612.43 2544.47M1519.22 2451.26L1426.02 2451.26M1519.22 2451.26L1519.22 2544.47M1426.02 2451.26L1332.82 2451.26M1426.02 2451.26L1426.02 2544.47M1332.82 2451.26L1239.61 2451.26M1332.82 2451.26L1332.82 2544.47M1239.61 2451.26L1146.41 2451.26M1239.61 2451.26L1239.61 2544.47M1146.41 2451.26L1053.2 2451.26M1146.41 2451.26L1146.41 2544.47M1053.2 2451.26L960 2451.26M1053.2 2451.26L1053.2 2544.47M960 2451.26L866.796 2451.26M960 2451.26L960 2544.47M866.796 2451.26L773.592 2451.26M866.796 2451.26L866.796 2544.47M773.592 2451.26L680.388 2451.26M773.592 2451.26L773.592 2544.47M680.388 2451.26L587.184 2451.26M680.388 2451.26L680.388 2544.47M587.184 2451.26L493.98 2451.26M587.184 2451.26L587.184 2544.47M493.98 2451.26L400.777 2451.26M493.98 2451.26L493.98 2544.47M400.777 2451.26L307.573 2451.26M400.777 2451.26L400.777 2544.47M307.573 2451.26L214.369 2451.26M307.573 2451.26L307.573 2544.47M214.369 2451.26L121.165 2451.26M214.369 2451.26L214.369 2544.47M121.165 2451.26L27.9611 2451.26M121.165 2451.26L121.165 2544.47M27.9611 2451.26L27.9611 2544.47M1892.04 2544.47L1798.83 2544.47M1892.04 2544.47L1892.04 2637.67M1798.83 2544.47L1705.63 2544.47M1798.83 2544.47L1798.83 2637.67M1705.63 2544.47L1612.43 2544.47M1705.63 2544.47L1705.63 2637.67M1612.43 2544.47L1519.22 2544.47M1612.43 2544.47L1612.43 2637.67M1519.22 2544.47L1426.02 2544.47M1519.22 2544.47L1519.22 2637.67M1426.02 2544.47L1332.82 2544.47M1426.02 2544.47L1426.02 2637.67M1332.82 2544.47L1239.61 2544.47M1332.82 2544.47L1332.82 2637.67M1239.61 2544.47L1146.41 2544.47M1239.61 2544.47L1239.61 2637.67M1146.41 2544.47L1053.2 2544.47M1146.41 2544.47L1146.41 2637.67M1053.2 2544.47L960 2544.47M1053.2 2544.47L1053.2 2637.67M960 2544.47L866.796 2544.47M960 2544.47L960 2637.67M866.796 2544.47L773.592 2544.47M866.796 2544.47L866.796 2637.67M773.592 2544.47L680.388 2544.47M773.592 2544.47L773.592 2637.67M680.388 2544.47L587.184 2544.47M680.388 2544.47L680.388 2637.67M587.184 2544.47L493.98 2544.47M587.184 2544.47L587.184 2637.67M493.98 2544.47L400.777 2544.47M493.98 2544.47L493.98 2637.67M400.777 2544.47L307.573 2544.47M400.777 2544.47L400.776 2637.67M307.573 2544.47L214.369 2544.47M307.573 2544.47L307.573 2637.67M214.369 2544.47L121.165 2544.47M214.369 2544.47L214.369 2637.67M121.165 2544.47L27.9611 2544.47M121.165 2544.47L121.165 2637.67M27.9611 2544.47L27.9611 2637.67M1892.04 2637.67L1798.83 2637.67M1892.04 2637.67L1892.04 2730.87M1798.83 2637.67L1705.63 2637.67M1798.83 2637.67L1798.83 2730.87M1705.63 2637.67L1612.43 2637.67M1705.63 2637.67L1705.63 2730.87M1612.43 2637.67L1519.22 2637.67M1612.43 2637.67L1612.43 2730.87M1519.22 2637.67L1426.02 2637.67M1519.22 2637.67L1519.22 2730.87M1426.02 2637.67L1332.82 2637.67M1426.02 2637.67L1426.02 2730.87M1332.82 2637.67L1239.61 2637.67M1332.82 2637.67L1332.82 2730.87M1239.61 2637.67L1146.41 2637.67M1239.61 2637.67L1239.61 2730.87M1146.41 2637.67L1053.2 2637.67M1146.41 2637.67L1146.41 2730.87M1053.2 2637.67L960 2637.67M1053.2 2637.67L1053.2 2730.87M960 2637.67L866.796 2637.67M960 2637.67L960 2730.87M866.796 2637.67L773.592 2637.67M866.796 2637.67L866.796 2730.87M773.592 2637.67L680.388 2637.67M773.592 2637.67L773.592 2730.87M680.388 2637.67L587.184 2637.67M680.388 2637.67L680.388 2730.87M587.184 2637.67L493.98 2637.67M587.184 2637.67L587.184 2730.87M493.98 2637.67L400.776 2637.67M493.98 2637.67L493.98 2730.87M400.776 2637.67L307.573 2637.67M400.776 2637.67L400.776 2730.87M307.573 2637.67L214.369 2637.67M307.573 2637.67L307.573 2730.87M214.369 2637.67L121.165 2637.67M214.369 2637.67L214.369 2730.87M121.165 2637.67L27.9611 2637.67M121.165 2637.67L121.165 2730.87M27.9611 2637.67L27.9611 2730.87M1892.04 2730.87L1798.83 2730.87M1892.04 2730.87L1892.04 2824.08M1798.83 2730.87L1705.63 2730.87M1798.83 2730.87L1798.83 2824.08M1705.63 2730.87L1612.43 2730.87M1705.63 2730.87L1705.63 2824.08M1612.43 2730.87L1519.22 2730.87M1612.43 2730.87L1612.43 2824.08M1519.22 2730.87L1426.02 2730.87M1519.22 2730.87L1519.22 2824.08M1426.02 2730.87L1332.82 2730.87M1426.02 2730.87L1426.02 2824.08M1332.82 2730.87L1239.61 2730.87M1332.82 2730.87L1332.82 2824.08M1239.61 2730.87L1146.41 2730.87M1239.61 2730.87L1239.61 2824.08M1146.41 2730.87L1053.2 2730.87M1146.41 2730.87L1146.41 2824.08M1053.2 2730.87L960 2730.87M1053.2 2730.87L1053.2 2824.08M960 2730.87L866.796 2730.87M960 2730.87L960 2824.08M866.796 2730.87L773.592 2730.87M866.796 2730.87L866.796 2824.08M773.592 2730.87L680.388 2730.87M773.592 2730.87L773.592 2824.08M680.388 2730.87L587.184 2730.87M680.388 2730.87L680.388 2824.08M587.184 2730.87L493.98 2730.87M587.184 2730.87L587.184 2824.08M493.98 2730.87L400.776 2730.87M493.98 2730.87L493.98 2824.08M400.776 2730.87L307.573 2730.87M400.776 2730.87L400.776 2824.08M307.573 2730.87L214.369 2730.87M307.573 2730.87L307.573 2824.08M214.369 2730.87L121.165 2730.87M214.369 2730.87L214.369 2824.08M121.165 2730.87L27.9611 2730.87M121.165 2730.87L121.165 2824.08M27.9611 2730.87L27.9611 2824.08M1892.04 2824.08L1798.83 2824.08M1892.04 2824.08L1892.04 2917.28M1798.83 2824.08L1705.63 2824.08M1798.83 2824.08L1798.83 2917.28M1705.63 2824.08L1612.43 2824.08M1705.63 2824.08L1705.63 2917.28M1612.43 2824.08L1519.22 2824.08M1612.43 2824.08L1612.43 2917.28M1519.22 2824.08L1426.02 2824.08M1519.22 2824.08L1519.22 2917.28M1426.02 2824.08L1332.82 2824.08M1426.02 2824.08L1426.02 2917.28M1332.82 2824.08L1239.61 2824.08M1332.82 2824.08L1332.82 2917.28M1239.61 2824.08L1146.41 2824.08M1239.61 2824.08L1239.61 2917.28M1146.41 2824.08L1053.2 2824.08M1146.41 2824.08L1146.41 2917.28M1053.2 2824.08L960 2824.08M1053.2 2824.08L1053.2 2917.28M960 2824.08L866.796 2824.08M960 2824.08L960 2917.28M866.796 2824.08L773.592 2824.08M866.796 2824.08L866.796 2917.28M773.592 2824.08L680.388 2824.08M773.592 2824.08L773.592 2917.28M680.388 2824.08L587.184 2824.08M680.388 2824.08L680.388 2917.28M587.184 2824.08L493.98 2824.08M587.184 2824.08L587.184 2917.28M493.98 2824.08L400.776 2824.08M493.98 2824.08L493.98 2917.28M400.776 2824.08L307.573 2824.08M400.776 2824.08L400.776 2917.28M307.573 2824.08L214.369 2824.08M307.573 2824.08L307.573 2917.28M214.369 2824.08L121.165 2824.08M214.369 2824.08L214.369 2917.28M121.165 2824.08L27.9611 2824.08M121.165 2824.08L121.165 2917.28M27.9611 2824.08L27.9611 2917.28M1892.04 2917.28L1798.83 2917.28M1892.04 2917.28L1892.04 3010.49M1798.83 2917.28L1705.63 2917.28M1798.83 2917.28L1798.83 3010.49M1705.63 2917.28L1612.43 2917.28M1705.63 2917.28L1705.63 3010.49M1612.43 2917.28L1519.22 2917.28M1612.43 2917.28L1612.43 3010.49M1519.22 2917.28L1426.02 2917.28M1519.22 2917.28L1519.22 3010.49M1426.02 2917.28L1332.82 2917.28M1426.02 2917.28L1426.02 3010.49M1332.82 2917.28L1239.61 2917.28M1332.82 2917.28L1332.82 3010.49M1239.61 2917.28L1146.41 2917.28M1239.61 2917.28L1239.61 3010.49M1146.41 2917.28L1053.2 2917.28M1146.41 2917.28L1146.41 3010.49M1053.2 2917.28L960 2917.28M1053.2 2917.28L1053.2 3010.49M960 2917.28L866.796 2917.28M960 2917.28L960 3010.49M866.796 2917.28L773.592 2917.28M866.796 2917.28L866.796 3010.49M773.592 2917.28L680.388 2917.28M773.592 2917.28L773.592 3010.49M680.388 2917.28L587.184 2917.28M680.388 2917.28L680.388 3010.49M587.184 2917.28L493.98 2917.28M587.184 2917.28L587.184 3010.49M493.98 2917.28L400.776 2917.28M493.98 2917.28L493.98 3010.49M400.776 2917.28L307.573 2917.28M400.776 2917.28L400.776 3010.49M307.573 2917.28L214.369 2917.28M307.573 2917.28L307.573 3010.49M214.369 2917.28L121.165 2917.28M214.369 2917.28L214.369 3010.49M121.165 2917.28L27.9611 2917.28M121.165 2917.28L121.165 3010.49M27.9611 2917.28L27.9611 3010.49M1892.04 3010.49L1798.83 3010.49M1892.04 3010.49L1892.04 3103.69M1798.83 3010.49L1705.63 3010.49M1798.83 3010.49L1798.83 3103.69M1705.63 3010.49L1612.43 3010.49M1705.63 3010.49L1705.63 3103.69M1612.43 3010.49L1519.22 3010.49M1612.43 3010.49L1612.43 3103.69M1519.22 3010.49L1426.02 3010.49M1519.22 3010.49L1519.22 3103.69M1426.02 3010.49L1332.82 3010.49M1426.02 3010.49L1426.02 3103.69M1332.82 3010.49L1239.61 3010.49M1332.82 3010.49L1332.82 3103.69M1239.61 3010.49L1146.41 3010.49M1239.61 3010.49L1239.61 3103.69M1146.41 3010.49L1053.2 3010.49M1146.41 3010.49L1146.41 3103.69M1053.2 3010.49L960 3010.49M1053.2 3010.49L1053.2 3103.69M960 3010.49L866.796 3010.49M960 3010.49L960 3103.69M866.796 3010.49L773.592 3010.49M866.796 3010.49L866.796 3103.69M773.592 3010.49L680.388 3010.49M773.592 3010.49L773.592 3103.69M680.388 3010.49L587.184 3010.49M680.388 3010.49L680.388 3103.69M587.184 3010.49L493.98 3010.49M587.184 3010.49L587.184 3103.69M493.98 3010.49L400.776 3010.49M493.98 3010.49L493.98 3103.69M400.776 3010.49L307.573 3010.49M400.776 3010.49L400.776 3103.69M307.573 3010.49L214.369 3010.49M307.573 3010.49L307.573 3103.69M214.369 3010.49L121.165 3010.49M214.369 3010.49L214.369 3103.69M121.165 3010.49L27.9611 3010.49M121.165 3010.49L121.165 3103.69M27.9611 3010.49L27.961 3103.69M1892.04 3103.69L1798.83 3103.69M1892.04 3103.69L1892.04 3196.89M1798.83 3103.69L1705.63 3103.69M1798.83 3103.69L1798.83 3196.89M1705.63 3103.69L1612.43 3103.69M1705.63 3103.69L1705.63 3196.89M1612.43 3103.69L1519.22 3103.69M1612.43 3103.69L1612.43 3196.89M1519.22 3103.69L1426.02 3103.69M1519.22 3103.69L1519.22 3196.89M1426.02 3103.69L1332.82 3103.69M1426.02 3103.69L1426.02 3196.89M1332.82 3103.69L1239.61 3103.69M1332.82 3103.69L1332.82 3196.89M1239.61 3103.69L1146.41 3103.69M1239.61 3103.69L1239.61 3196.89M1146.41 3103.69L1053.2 3103.69M1146.41 3103.69L1146.41 3196.89M1053.2 3103.69L960 3103.69M1053.2 3103.69L1053.2 3196.89M960 3103.69L866.796 3103.69M960 3103.69L960 3196.89M866.796 3103.69L773.592 3103.69M866.796 3103.69L866.796 3196.89M773.592 3103.69L680.388 3103.69M773.592 3103.69L773.592 3196.89M680.388 3103.69L587.184 3103.69M680.388 3103.69L680.388 3196.89M587.184 3103.69L493.98 3103.69M587.184 3103.69L587.184 3196.89M493.98 3103.69L400.776 3103.69M493.98 3103.69L493.98 3196.89M400.776 3103.69L307.573 3103.69M400.776 3103.69L400.776 3196.89M307.573 3103.69L214.369 3103.69M307.573 3103.69L307.573 3196.89M214.369 3103.69L121.165 3103.69M214.369 3103.69L214.369 3196.89M121.165 3103.69L27.961 3103.69M121.165 3103.69L121.165 3196.89M27.961 3103.69L27.961 3196.89M1892.04 3196.89L1798.83 3196.89M1892.04 3196.89L1892.04 3290.1M1798.83 3196.89L1705.63 3196.89M1798.83 3196.89L1798.83 3290.1M1705.63 3196.89L1612.43 3196.89M1705.63 3196.89L1705.63 3290.1M1612.43 3196.89L1519.22 3196.89M1612.43 3196.89L1612.43 3290.1M1519.22 3196.89L1426.02 3196.89M1519.22 3196.89L1519.22 3290.1M1426.02 3196.89L1332.82 3196.89M1426.02 3196.89L1426.02 3290.1M1332.82 3196.89L1239.61 3196.89M1332.82 3196.89L1332.82 3290.1M1239.61 3196.89L1146.41 3196.89M1239.61 3196.89L1239.61 3290.1M1146.41 3196.89L1053.2 3196.89M1146.41 3196.89L1146.41 3290.1M1053.2 3196.89L960 3196.89M1053.2 3196.89L1053.2 3290.1M960 3196.89L866.796 3196.89M960 3196.89L960 3290.1M866.796 3196.89L773.592 3196.89M866.796 3196.89L866.796 3290.1M773.592 3196.89L680.388 3196.89M773.592 3196.89L773.592 3290.1M680.388 3196.89L587.184 3196.89M680.388 3196.89L680.388 3290.1M587.184 3196.89L493.98 3196.89M587.184 3196.89L587.184 3290.1M493.98 3196.89L400.776 3196.89M493.98 3196.89L493.98 3290.1M400.776 3196.89L307.573 3196.89M400.776 3196.89L400.776 3290.1M307.573 3196.89L214.369 3196.89M307.573 3196.89L307.573 3290.1M214.369 3196.89L121.165 3196.89M214.369 3196.89L214.369 3290.1M121.165 3196.89L27.961 3196.89M121.165 3196.89L121.165 3290.1M27.961 3196.89L27.961 3290.1M1892.04 3290.1L1798.83 3290.1M1892.04 3290.1L1892.04 3383.3M1798.83 3290.1L1705.63 3290.1M1798.83 3290.1L1798.83 3383.3M1705.63 3290.1L1612.43 3290.1M1705.63 3290.1L1705.63 3383.3M1612.43 3290.1L1519.22 3290.1M1612.43 3290.1L1612.43 3383.3M1519.22 3290.1L1426.02 3290.1M1519.22 3290.1L1519.22 3383.3M1426.02 3290.1L1332.82 3290.1M1426.02 3290.1L1426.02 3383.3M1332.82 3290.1L1239.61 3290.1M1332.82 3290.1L1332.82 3383.3M1239.61 3290.1L1146.41 3290.1M1239.61 3290.1L1239.61 3383.3M1146.41 3290.1L1053.2 3290.1M1146.41 3290.1L1146.41 3383.3M1053.2 3290.1L960 3290.1M1053.2 3290.1L1053.2 3383.3M960 3290.1L866.796 3290.1M960 3290.1L960 3383.3M866.796 3290.1L773.592 3290.1M866.796 3290.1L866.796 3383.3M773.592 3290.1L680.388 3290.1M773.592 3290.1L773.592 3383.3M680.388 3290.1L587.184 3290.1M680.388 3290.1L680.388 3383.3M587.184 3290.1L493.98 3290.1M587.184 3290.1L587.184 3383.3M493.98 3290.1L400.776 3290.1M493.98 3290.1L493.98 3383.3M400.776 3290.1L307.573 3290.1M400.776 3290.1L400.776 3383.3M307.573 3290.1L214.369 3290.1M307.573 3290.1L307.573 3383.3M214.369 3290.1L121.165 3290.1M214.369 3290.1L214.369 3383.3M121.165 3290.1L27.961 3290.1M121.165 3290.1L121.165 3383.3M27.961 3290.1L27.961 3383.3M1892.04 3383.3L1798.83 3383.3M1892.04 3383.3L1892.04 3476.51M1798.83 3383.3L1705.63 3383.3M1798.83 3383.3L1798.83 3476.51M1705.63 3383.3L1612.43 3383.3M1705.63 3383.3L1705.63 3476.51M1612.43 3383.3L1519.22 3383.3M1612.43 3383.3L1612.43 3476.51M1519.22 3383.3L1426.02 3383.3M1519.22 3383.3L1519.22 3476.51M1426.02 3383.3L1332.82 3383.3M1426.02 3383.3L1426.02 3476.51M1332.82 3383.3L1239.61 3383.3M1332.82 3383.3L1332.82 3476.51M1239.61 3383.3L1146.41 3383.3M1239.61 3383.3L1239.61 3476.51M1146.41 3383.3L1053.2 3383.3M1146.41 3383.3L1146.41 3476.51M1053.2 3383.3L960 3383.3M1053.2 3383.3L1053.2 3476.51M960 3383.3L866.796 3383.3M960 3383.3L960 3476.51M866.796 3383.3L773.592 3383.3M866.796 3383.3L866.796 3476.51M773.592 3383.3L680.388 3383.3M773.592 3383.3L773.592 3476.51M680.388 3383.3L587.184 3383.3M680.388 3383.3L680.388 3476.51M587.184 3383.3L493.98 3383.3M587.184 3383.3L587.184 3476.51M493.98 3383.3L400.776 3383.3M493.98 3383.3L493.98 3476.51M400.776 3383.3L307.573 3383.3M400.776 3383.3L400.776 3476.51M307.573 3383.3L214.369 3383.3M307.573 3383.3L307.573 3476.51M214.369 3383.3L121.165 3383.3M214.369 3383.3L214.369 3476.51M121.165 3383.3L27.961 3383.3M121.165 3383.3L121.165 3476.51M27.961 3383.3L27.961 3476.51M1892.04 3476.51L1798.83 3476.51M1892.04 3476.51L1892.04 3569.71M1798.83 3476.51L1705.63 3476.51M1798.83 3476.51L1798.83 3569.71M1705.63 3476.51L1612.43 3476.51M1705.63 3476.51L1705.63 3569.71M1612.43 3476.51L1519.22 3476.51M1612.43 3476.51L1612.43 3569.71M1519.22 3476.51L1426.02 3476.51M1519.22 3476.51L1519.22 3569.71M1426.02 3476.51L1332.82 3476.51M1426.02 3476.51L1426.02 3569.71M1332.82 3476.51L1239.61 3476.51M1332.82 3476.51L1332.82 3569.71M1239.61 3476.51L1146.41 3476.51M1239.61 3476.51L1239.61 3569.71M1146.41 3476.51L1053.2 3476.51M1146.41 3476.51L1146.41 3569.71M1053.2 3476.51L960 3476.51M1053.2 3476.51L1053.2 3569.71M960 3476.51L866.796 3476.51M960 3476.51L960 3569.71M866.796 3476.51L773.592 3476.51M866.796 3476.51L866.796 3569.71M773.592 3476.51L680.388 3476.51M773.592 3476.51L773.592 3569.71M680.388 3476.51L587.184 3476.51M680.388 3476.51L680.388 3569.71M587.184 3476.51L493.98 3476.51M587.184 3476.51L587.184 3569.71M493.98 3476.51L400.776 3476.51M493.98 3476.51L493.98 3569.71M400.776 3476.51L307.573 3476.51M400.776 3476.51L400.776 3569.71M307.573 3476.51L214.369 3476.51M307.573 3476.51L307.573 3569.71M214.369 3476.51L121.165 3476.51M214.369 3476.51L214.369 3569.71M121.165 3476.51L27.961 3476.51M121.165 3476.51L121.165 3569.71M27.961 3476.51L27.961 3569.71M1892.04 3569.71L1798.83 3569.71M1892.04 3569.71L1892.04 3662.91M1798.83 3569.71L1705.63 3569.71M1798.83 3569.71L1798.83 3662.91M1705.63 3569.71L1612.43 3569.71M1705.63 3569.71L1705.63 3662.91M1612.43 3569.71L1519.22 3569.71M1612.43 3569.71L1612.43 3662.91M1519.22 3569.71L1426.02 3569.71M1519.22 3569.71L1519.22 3662.91M1426.02 3569.71L1332.82 3569.71M1426.02 3569.71L1426.02 3662.91M1332.82 3569.71L1239.61 3569.71M1332.82 3569.71L1332.82 3662.91M1239.61 3569.71L1146.41 3569.71M1239.61 3569.71L1239.61 3662.91M1146.41 3569.71L1053.2 3569.71M1146.41 3569.71L1146.41 3662.91M1053.2 3569.71L960 3569.71M1053.2 3569.71L1053.2 3662.91M960 3569.71L866.796 3569.71M960 3569.71L960 3662.91M866.796 3569.71L773.592 3569.71M866.796 3569.71L866.796 3662.91M773.592 3569.71L680.388 3569.71M773.592 3569.71L773.592 3662.91M680.388 3569.71L587.184 3569.71M680.388 3569.71L680.388 3662.91M587.184 3569.71L493.98 3569.71M587.184 3569.71L587.184 3662.91M493.98 3569.71L400.776 3569.71M493.98 3569.71L493.98 3662.91M400.776 3569.71L307.573 3569.71M400.776 3569.71L400.776 3662.91M307.573 3569.71L214.369 3569.71M307.573 3569.71L307.573 3662.91M214.369 3569.71L121.165 3569.71M214.369 3569.71L214.369 3662.91M121.165 3569.71L27.961 3569.71M121.165 3569.71L121.165 3662.91M27.961 3569.71L27.961 3662.91M1892.04 3662.91L1798.83 3662.91M1892.04 3662.91L1892.04 3756.12M1798.83 3662.91L1705.63 3662.91M1798.83 3662.91L1798.83 3756.12M1705.63 3662.91L1612.43 3662.91M1705.63 3662.91L1705.63 3756.12M1612.43 3662.91L1519.22 3662.91M1612.43 3662.91L1612.43 3756.12M1519.22 3662.91L1426.02 3662.91M1519.22 3662.91L1519.22 3756.12M1426.02 3662.91L1332.82 3662.91M1426.02 3662.91L1426.02 3756.12M1332.82 3662.91L1239.61 3662.91M1332.82 3662.91L1332.82 3756.12M1239.61 3662.91L1146.41 3662.91M1239.61 3662.91L1239.61 3756.12M1146.41 3662.91L1053.2 3662.91M1146.41 3662.91L1146.41 3756.12M1053.2 3662.91L960 3662.91M1053.2 3662.91L1053.2 3756.12M960 3662.91L866.796 3662.91M960 3662.91L960 3756.12M866.796 3662.91L773.592 3662.91M866.796 3662.91L866.796 3756.12M773.592 3662.91L680.388 3662.91M773.592 3662.91L773.592 3756.12M680.388 3662.91L587.184 3662.91M680.388 3662.91L680.388 3756.12M587.184 3662.91L493.98 3662.91M587.184 3662.91L587.184 3756.12M493.98 3662.91L400.776 3662.91M493.98 3662.91L493.98 3756.12M400.776 3662.91L307.573 3662.91M400.776 3662.91L400.776 3756.12M307.573 3662.91L214.369 3662.91M307.573 3662.91L307.573 3756.12M214.369 3662.91L121.165 3662.91M214.369 3662.91L214.369 3756.12M121.165 3662.91L27.961 3662.91M121.165 3662.91L121.165 3756.12M27.961 3662.91L27.961 3756.12M1892.04 3756.12L1798.83 3756.12M1892.04 3756.12L1892.04 3849.32M1798.83 3756.12L1705.63 3756.12M1798.83 3756.12L1798.83 3849.32M1705.63 3756.12L1612.43 3756.12M1705.63 3756.12L1705.63 3849.32M1612.43 3756.12L1519.22 3756.12M1612.43 3756.12L1612.43 3849.32M1519.22 3756.12L1426.02 3756.12M1519.22 3756.12L1519.22 3849.32M1426.02 3756.12L1332.82 3756.12M1426.02 3756.12L1426.02 3849.32M1332.82 3756.12L1239.61 3756.12M1332.82 3756.12L1332.82 3849.32M1239.61 3756.12L1146.41 3756.12M1239.61 3756.12L1239.61 3849.32M1146.41 3756.12L1053.2 3756.12M1146.41 3756.12L1146.41 3849.32M1053.2 3756.12L960 3756.12M1053.2 3756.12L1053.2 3849.32M960 3756.12L866.796 3756.12M960 3756.12L960 3849.32M866.796 3756.12L773.592 3756.12M866.796 3756.12L866.796 3849.32M773.592 3756.12L680.388 3756.12M773.592 3756.12L773.592 3849.32M680.388 3756.12L587.184 3756.12M680.388 3756.12L680.388 3849.32M587.184 3756.12L493.98 3756.12M587.184 3756.12L587.184 3849.32M493.98 3756.12L400.776 3756.12M493.98 3756.12L493.98 3849.32M400.776 3756.12L307.573 3756.12M400.776 3756.12L400.776 3849.32M307.573 3756.12L214.369 3756.12M307.573 3756.12L307.573 3849.32M214.369 3756.12L121.165 3756.12M214.369 3756.12L214.369 3849.32M121.165 3756.12L27.961 3756.12M121.165 3756.12L121.165 3849.32M27.961 3756.12L27.961 3849.32M1892.04 3849.32L1798.83 3849.32M1892.04 3849.32L1892.04 3942.52M1798.83 3849.32L1705.63 3849.32M1798.83 3849.32L1798.83 3942.52M1705.63 3849.32L1612.43 3849.32M1705.63 3849.32L1705.63 3942.52M1612.43 3849.32L1519.22 3849.32M1612.43 3849.32L1612.43 3942.52M1519.22 3849.32L1426.02 3849.32M1519.22 3849.32L1519.22 3942.52M1426.02 3849.32L1332.82 3849.32M1426.02 3849.32L1426.02 3942.52M1332.82 3849.32L1239.61 3849.32M1332.82 3849.32L1332.82 3942.52M1239.61 3849.32L1146.41 3849.32M1239.61 3849.32L1239.61 3942.52M1146.41 3849.32L1053.2 3849.32M1146.41 3849.32L1146.41 3942.52M1053.2 3849.32L960 3849.32M1053.2 3849.32L1053.2 3942.52M960 3849.32L866.796 3849.32M960 3849.32L960 3942.52M866.796 3849.32L773.592 3849.32M866.796 3849.32L866.796 3942.52M773.592 3849.32L680.388 3849.32M773.592 3849.32L773.592 3942.52M680.388 3849.32L587.184 3849.32M680.388 3849.32L680.388 3942.52M587.184 3849.32L493.98 3849.32M587.184 3849.32L587.184 3942.52M493.98 3849.32L400.776 3849.32M493.98 3849.32L493.98 3942.52M400.776 3849.32L307.573 3849.32M400.776 3849.32L400.776 3942.52M307.573 3849.32L214.369 3849.32M307.573 3849.32L307.573 3942.52M214.369 3849.32L121.165 3849.32M214.369 3849.32L214.369 3942.52M121.165 3849.32L27.961 3849.32M121.165 3849.32L121.165 3942.52M27.961 3849.32L27.961 3942.52M1892.04 3942.52L1798.83 3942.52M1892.04 3942.52L1892.04 4035.73M1798.83 3942.52L1705.63 3942.52M1798.83 3942.52L1798.83 4035.73M1705.63 3942.52L1612.43 3942.52M1705.63 3942.52L1705.63 4035.73M1612.43 3942.52L1519.22 3942.52M1612.43 3942.52L1612.43 4035.73M1519.22 3942.52L1426.02 3942.52M1519.22 3942.52L1519.22 4035.73M1426.02 3942.52L1332.82 3942.52M1426.02 3942.52L1426.02 4035.73M1332.82 3942.52L1239.61 3942.52M1332.82 3942.52L1332.82 4035.73M1239.61 3942.52L1146.41 3942.52M1239.61 3942.52L1239.61 4035.73M1146.41 3942.52L1053.2 3942.52M1146.41 3942.52L1146.41 4035.73M1053.2 3942.52L960 3942.52M1053.2 3942.52L1053.2 4035.73M960 3942.52L866.796 3942.52M960 3942.52L960 4035.73M866.796 3942.52L773.592 3942.52M866.796 3942.52L866.796 4035.73M773.592 3942.52L680.388 3942.52M773.592 3942.52L773.592 4035.73M680.388 3942.52L587.184 3942.52M680.388 3942.52L680.388 4035.73M587.184 3942.52L493.98 3942.52M587.184 3942.52L587.184 4035.73M493.98 3942.52L400.776 3942.52M493.98 3942.52L493.98 4035.73M400.776 3942.52L307.573 3942.52M400.776 3942.52L400.776 4035.73M307.573 3942.52L214.369 3942.52M307.573 3942.52L307.573 4035.73M214.369 3942.52L121.165 3942.52M214.369 3942.52L214.369 4035.73M121.165 3942.52L27.961 3942.52M121.165 3942.52L121.165 4035.73M27.961 3942.52L27.961 4035.73M1892.04 4035.73L1798.83 4035.73M1892.04 4035.73L1892.04 4128.93L1798.83 4128.93M1798.83 4035.73L1705.63 4035.73M1798.83 4035.73L1798.83 4128.93M1705.63 4035.73L1612.43 4035.73M1705.63 4035.73L1705.63 4128.93M1612.43 4035.73L1519.22 4035.73M1612.43 4035.73L1612.43 4128.93M1519.22 4035.73L1426.02 4035.73M1519.22 4035.73L1519.22 4128.93M1426.02 4035.73L1332.82 4035.73M1426.02 4035.73L1426.02 4128.93M1332.82 4035.73L1239.61 4035.73M1332.82 4035.73L1332.82 4128.93M1239.61 4035.73L1146.41 4035.73M1239.61 4035.73L1239.61 4128.93M1146.41 4035.73L1053.2 4035.73M1146.41 4035.73L1146.41 4128.93M1053.2 4035.73L960 4035.73M1053.2 4035.73L1053.2 4128.93M960 4035.73L866.796 4035.73M960 4035.73L960 4128.93M866.796 4035.73L773.592 4035.73M866.796 4035.73L866.796 4128.93M773.592 4035.73L680.388 4035.73M773.592 4035.73L773.592 4128.93M680.388 4035.73L587.184 4035.73M680.388 4035.73L680.388 4128.93M587.184 4035.73L493.98 4035.73M587.184 4035.73L587.184 4128.93M493.98 4035.73L400.776 4035.73M493.98 4035.73L493.98 4128.93M400.776 4035.73L307.573 4035.73M400.776 4035.73L400.776 4128.93M307.573 4035.73L214.369 4035.73M307.573 4035.73L307.573 4128.93M214.369 4035.73L121.165 4035.73M214.369 4035.73L214.369 4128.93M121.165 4035.73L27.961 4035.73M121.165 4035.73L121.165 4128.93M27.961 4035.73L27.961 4128.93L121.165 4128.93M1798.83 4128.93L1705.63 4128.93M1705.63 4128.93L1612.43 4128.93M1612.43 4128.93L1519.22 4128.93M1519.22 4128.93L1426.02 4128.93M1426.02 4128.93L1332.82 4128.93M1332.82 4128.93L1239.61 4128.93M1239.61 4128.93L1146.41 4128.93M1146.41 4128.93L1053.2 4128.93M1053.2 4128.93L960 4128.93M960 4128.93L866.796 4128.93M866.796 4128.93L773.592 4128.93M773.592 4128.93L680.388 4128.93M680.388 4128.93L587.184 4128.93M587.184 4128.93L493.98 4128.93M493.98 4128.93L400.776 4128.93M400.776 4128.93L307.573 4128.93M307.573 4128.93L214.369 4128.93M214.369 4128.93L121.165 4128.93" stroke="black" stroke-width="0.804612"/>
<path d="M1547.18 400.78L1491.26 400.78M1519.22 372.818L1519.22 428.741" stroke="black" stroke-width="1.60922"/>
<path d="M801.554 400.78L745.632 400.78M773.593 372.818L773.593 428.741" stroke="black" stroke-width="1.60922"/>
<path d="M55.9224 400.78L3.50174e-05 400.78M27.9612 372.818L27.9612 428.741" stroke="black" stroke-width="1.60922"/>
<path d="M1547.18 1146.41L1491.26 1146.41M1519.22 1118.45L1519.22 1174.37" stroke="black" stroke-width="1.60922"/>
<path d="M801.554 1146.41L745.632 1146.41M773.593 1118.45L773.593 1174.37" stroke="black" stroke-width="1.60922"/>
<path d="M55.9224 1146.41L3.50174e-05 1146.41M27.9612 1118.45L27.9612 1174.37" stroke="black" stroke-width="1.60922"/>
<path d="M1547.18 1892.04L1491.26 1892.04M1519.22 1864.07L1519.22 1920" stroke="black" stroke-width="1.60922"/>
<path d="M801.554 1892.04L745.632 1892.04M773.593 1864.07L773.593 1920" stroke="black" stroke-width="1.60922"/>
<path d="M55.9224 1892.04L3.50174e-05 1892.04M27.9612 1864.07L27.9612 1920" stroke="black" stroke-width="1.60922"/>
<path d="M1547.18 2637.67L1491.26 2637.67M1519.22 2609.7L1519.22 2665.63" stroke="black" stroke-width="1.60922"/>
<path d="M801.554 2637.67L745.632 2637.67M773.593 2609.7L773.593 2665.63" stroke="black" stroke-width="1.60922"/>
<path d="M55.9224 2637.67L3.50174e-05 2637.67M27.9612 2609.7L27.9612 2665.63" stroke="black" stroke-width="1.60922"/>
<path d="M1547.18 3383.3L1491.26 3383.3M1519.22 3355.34L1519.22 3411.26" stroke="black" stroke-width="1.60922"/>
<path d="M801.554 3383.3L745.632 3383.3M773.593 3355.34L773.593 3411.26" stroke="black" stroke-width="1.60922"/>
<path d="M55.9224 3383.3L3.50174e-05 3383.3M27.9612 3355.34L27.9612 3411.26" stroke="black" stroke-width="1.60922"/>
<path d="M1547.18 4128.93L1491.26 4128.93M1519.22 4100.97L1519.22 4156.9" stroke="black" stroke-width="1.60922"/>
<path d="M801.554 4128.93L745.632 4128.93M773.593 4100.97L773.593 4156.9" stroke="black" stroke-width="1.60922"/>
<path d="M55.9224 4128.93L3.50174e-05 4128.93M27.9612 4100.97L27.9612 4156.9" stroke="black" stroke-width="1.60922"/>
<path d="M1920 400.78L1864.08 400.78M1892.04 372.818L1892.04 428.741" stroke="black" stroke-width="1.60922"/>
<path d="M1174.37 400.78L1118.45 400.78M1146.41 372.818L1146.41 428.741" stroke="black" stroke-width="1.60922"/>
<path d="M428.738 400.78L372.815 400.78M400.776 372.818L400.776 428.741" stroke="black" stroke-width="1.60922"/>
<path d="M1920 1146.41L1864.08 1146.41M1892.04 1118.45L1892.04 1174.37" stroke="black" stroke-width="1.60922"/>
<path d="M1174.37 1146.41L1118.45 1146.41M1146.41 1118.45L1146.41 1174.37" stroke="black" stroke-width="1.60922"/>
<path d="M428.738 1146.41L372.815 1146.41M400.776 1118.45L400.776 1174.37" stroke="black" stroke-width="1.60922"/>
<path d="M1920 1892.04L1864.08 1892.04M1892.04 1864.07L1892.04 1920" stroke="black" stroke-width="1.60922"/>
<path d="M1174.37 1892.04L1118.45 1892.04M1146.41 1864.07L1146.41 1920" stroke="black" stroke-width="1.60922"/>
<path d="M428.738 1892.04L372.815 1892.04M400.776 1864.07L400.776 1920" stroke="black" stroke-width="1.60922"/>
<path d="M1920 2637.67L1864.08 2637.67M1892.04 2609.7L1892.04 2665.63" stroke="black" stroke-width="1.60922"/>
<path d="M1174.37 2637.67L1118.45 2637.67M1146.41 2609.7L1146.41 2665.63" stroke="black" stroke-width="1.60922"/>
<path d="M428.738 2637.67L372.815 2637.67M400.776 2609.7L400.776 2665.63" stroke="black" stroke-width="1.60922"/>
<path d="M1920 3383.3L1864.08 3383.3M1892.04 3355.34L1892.04 3411.26" stroke="black" stroke-width="1.60922"/>
<path d="M1174.37 3383.3L1118.45 3383.3M1146.41 3355.34L1146.41 3411.26" stroke="black" stroke-width="1.60922"/>
<path d="M428.738 3383.3L372.815 3383.3M400.776 3355.34L400.776 3411.26" stroke="black" stroke-width="1.60922"/>
<path d="M1920 4128.93L1864.08 4128.93M1892.04 4100.97L1892.04 4156.9" stroke="black" stroke-width="1.60922"/>
<path d="M1174.37 4128.93L1118.45 4128.93M1146.41 4100.97L1146.41 4156.9" stroke="black" stroke-width="1.60922"/>
<path d="M428.738 4128.93L372.815 4128.93M400.776 4100.97L400.776 4156.9" stroke="black" stroke-width="1.60922"/>
<path d="M1547.18 27.9612L1491.26 27.9612M1519.22 -1.22222e-06L1519.22 55.9223" stroke="black" stroke-width="1.60922"/>
<path d="M801.554 27.9612L745.632 27.9612M773.593 -1.22222e-06L773.593 55.9223" stroke="black" stroke-width="1.60922"/>
<path d="M55.9224 27.9612L3.50174e-05 27.9612M27.9612 -1.22222e-06L27.9612 55.9223" stroke="black" stroke-width="1.60922"/>
<path d="M1547.18 773.593L1491.26 773.593M1519.22 745.631L1519.22 801.554" stroke="black" stroke-width="1.60922"/>
<path d="M801.554 773.593L745.632 773.593M773.593 745.631L773.593 801.554" stroke="black" stroke-width="1.60922"/>
<path d="M55.9224 773.593L3.50174e-05 773.593M27.9612 745.631L27.9612 801.554" stroke="black" stroke-width="1.60922"/>
<path d="M1547.18 1519.22L1491.26 1519.22M1519.22 1491.26L1519.22 1547.18" stroke="black" stroke-width="1.60922"/>
<path d="M801.554 1519.22L745.632 1519.22M773.593 1491.26L773.593 1547.18" stroke="black" stroke-width="1.60922"/>
<path d="M55.9224 1519.22L3.50174e-05 1519.22M27.9612 1491.26L27.9612 1547.18" stroke="black" stroke-width="1.60922"/>
<path d="M1547.18 2264.85L1491.26 2264.85M1519.22 2236.89L1519.22 2292.81" stroke="black" stroke-width="1.60922"/>
<path d="M801.554 2264.85L745.632 2264.85M773.593 2236.89L773.593 2292.81" stroke="black" stroke-width="1.60922"/>
<path d="M55.9224 2264.85L3.50174e-05 2264.85M27.9612 2236.89L27.9612 2292.81" stroke="black" stroke-width="1.60922"/>
<path d="M1547.18 3010.48L1491.26 3010.48M1519.22 2982.52L1519.22 3038.45" stroke="black" stroke-width="1.60922"/>
<path d="M801.554 3010.48L745.631 3010.48M773.593 2982.52L773.593 3038.45" stroke="black" stroke-width="1.60922"/>
<path d="M55.9224 3010.48L3.50174e-05 3010.48M27.9612 2982.52L27.9612 3038.45" stroke="black" stroke-width="1.60922"/>
<path d="M1547.18 3756.12L1491.26 3756.12M1519.22 3728.15L1519.22 3784.08" stroke="black" stroke-width="1.60922"/>
<path d="M801.554 3756.12L745.632 3756.12M773.593 3728.15L773.593 3784.08" stroke="black" stroke-width="1.60922"/>
<path d="M55.9224 3756.12L3.50174e-05 3756.12M27.9612 3728.15L27.9612 3784.08" stroke="black" stroke-width="1.60922"/>
<path d="M1920 27.9612L1864.08 27.9612M1892.04 -1.22222e-06L1892.04 55.9223" stroke="black" stroke-width="1.60922"/>
<path d="M1174.37 27.9612L1118.45 27.9612M1146.41 -1.22222e-06L1146.41 55.9223" stroke="black" stroke-width="1.60922"/>
<path d="M428.738 27.9612L372.816 27.9612M400.777 -1.22222e-06L400.777 55.9223" stroke="black" stroke-width="1.60922"/>
<path d="M1920 773.593L1864.08 773.593M1892.04 745.631L1892.04 801.554" stroke="black" stroke-width="1.60922"/>
<path d="M1174.37 773.593L1118.45 773.593M1146.41 745.631L1146.41 801.554" stroke="black" stroke-width="1.60922"/>
<path d="M428.738 773.593L372.815 773.593M400.776 745.631L400.776 801.554" stroke="black" stroke-width="1.60922"/>
<path d="M1920 1519.22L1864.08 1519.22M1892.04 1491.26L1892.04 1547.18" stroke="black" stroke-width="1.60922"/>
<path d="M1174.37 1519.22L1118.45 1519.22M1146.41 1491.26L1146.41 1547.18" stroke="black" stroke-width="1.60922"/>
<path d="M428.738 1519.22L372.815 1519.22M400.776 1491.26L400.776 1547.18" stroke="black" stroke-width="1.60922"/>
<path d="M1920 2264.85L1864.08 2264.85M1892.04 2236.89L1892.04 2292.81" stroke="black" stroke-width="1.60922"/>
<path d="M1174.37 2264.85L1118.45 2264.85M1146.41 2236.89L1146.41 2292.81" stroke="black" stroke-width="1.60922"/>
<path d="M428.738 2264.85L372.815 2264.85M400.776 2236.89L400.776 2292.81" stroke="black" stroke-width="1.60922"/>
<path d="M1920 3010.49L1864.08 3010.49M1892.04 2982.52L1892.04 3038.45" stroke="black" stroke-width="1.60922"/>
<path d="M1174.37 3010.48L1118.45 3010.48M1146.41 2982.52L1146.41 3038.45" stroke="black" stroke-width="1.60922"/>
<path d="M428.738 3010.48L372.815 3010.48M400.776 2982.52L400.776 3038.45" stroke="black" stroke-width="1.60922"/>
<path d="M1920 3756.12L1864.08 3756.12M1892.04 3728.15L1892.04 3784.08" stroke="black" stroke-width="1.60922"/>
<path d="M1174.37 3756.12L1118.45 3756.12M1146.41 3728.15L1146.41 3784.08" stroke="black" stroke-width="1.60922"/>
<path d="M428.738 3756.12L372.815 3756.12M400.776 3728.15L400.776 3784.08" stroke="black" stroke-width="1.60922"/>
</svg>
